# xmcd CD database file
#
# Track frame offsets:
#	150
#	14423
#	26286
#
# Disc length: 511 seconds
#
# Revision: 2
# Processed by: cddbd v1.5.1PL2 Copyright (c) Steve Scherf et al.
# Submitted via: CD2WAV32(JP) R3.22
#
DISCID=1601fd03
DTITLE=横山智佐 - Magical Girl PRETTY SAMY
DYEAR=1997
DGENRE=Game
TTITLE0=ダイヤモンドの勇気
TTITLE1=天使の誘惑
TTITLE2=マイ・フェイバリット・ボーイ
EXTD=
EXTT0=
EXTT1=
EXTT2=
PLAYORDER=
